<?xml version="1.0" encoding="utf-8"?>
<!-- Generator: Adobe Illustrator 16.0.0, SVG Export Plug-In . SVG Version: 6.00 Build 0)  -->
<!DOCTYPE svg PUBLIC "-//W3C//DTD SVG 1.1//EN" "http://www.w3.org/Graphics/SVG/1.1/DTD/svg11.dtd">
<svg version="1.1" id="Layer_1" xmlns="http://www.w3.org/2000/svg" xmlns:xlink="http://www.w3.org/1999/xlink" x="0px" y="0px"
	 width="612px" height="607.5px" viewBox="0 0 612 607.5" enable-background="new 0 0 612 607.5" xml:space="preserve">
<g transform="translate(-330 -260)">
	<g>
		<polygon points="493.2,477.5 493.2,518.3 574.8,518.3 574.8,559.1 493.2,559.1 493.2,681.5 615.6,681.5 615.6,640.7 534,640.7 
			534,599.9 615.6,599.9 615.6,477.5 		"/>
		<polygon points="758.4,559.1 758.4,477.5 717.6,477.5 717.6,559.1 697.199,559.1 697.199,477.5 656.4,477.5 656.4,599.9 
			697.199,599.9 717.6,599.9 717.6,681.5 758.4,681.5 758.4,599.9 799.199,599.9 799.199,559.1 		"/>
		<path d="M879.106,473.4l-37.372,16.34c12.382,28.335,18.666,58.527,18.666,89.76c0,123.726-100.674,224.399-224.4,224.399
			c-123.726,0-224.4-100.674-224.4-224.399c0-123.726,100.674-224.4,224.4-224.4v40.8l102-61.2l-102-61.2v40.8
			c-146.228,0-265.2,118.973-265.2,265.2c0,146.228,118.973,265.2,265.2,265.2c146.248,0,265.199-118.973,265.199-265.2
			C901.199,542.576,893.773,506.876,879.106,473.4z"/>
	</g>
</g>
<text transform="matrix(1 0 0 1 0.0039 931.5068)" font-family="'Arial-BoldMT'" font-size="102">Created by Hea Poh Lin</text>
<text transform="matrix(1 0 0 1 0.0039 1033.5068)" font-family="'Arial-BoldMT'" font-size="102">from the Noun Project</text>
</svg>
