<?xml version="1.0" encoding="utf-8"?>
<!-- Generator: Adobe Illustrator 16.0.0, SVG Export Plug-In . SVG Version: 6.00 Build 0)  -->
<!DOCTYPE svg PUBLIC "-//W3C//DTD SVG 1.1//EN" "http://www.w3.org/Graphics/SVG/1.1/DTD/svg11.dtd">
<svg version="1.1" id="Layer_1" xmlns="http://www.w3.org/2000/svg" xmlns:xlink="http://www.w3.org/1999/xlink" x="0px" y="0px"
	 width="612px" height="589px" viewBox="0 22.5 612 589" enable-background="new 0 22.5 612 589" xml:space="preserve">
<title>Artboard 4</title>
<path d="M329.746,172.13L312.12,279.475l75.582,3.305h2.325c6.158,1.027,11.48,4.876,14.382,10.404
	c2.825,5.579,2.825,12.169,0,17.748l-94.676,181.764c-3.651,7.206-12.452,10.088-19.658,6.438
	c-5.697-2.886-8.863-9.134-7.821-15.435l17.625-107.528l-75.704-3.489h-2.326c-6.135-1.044-11.431-4.892-14.321-10.404
	c-2.815-5.581-2.815-12.167,0-17.748l94.615-181.458c3.847-7.18,12.785-9.883,19.966-6.037
	C327.574,159.963,330.625,165.995,329.746,172.13L329.746,172.13z M101.164,167.602c-13.949-8.085-31.811-3.332-39.896,10.617
	s-3.332,31.811,10.617,39.896c13.949,8.085,31.811,3.332,39.896-10.618c0.011-0.018,0.021-0.036,0.032-0.054
	C119.855,193.498,115.091,175.674,101.164,167.602z M154.041,114.725c8.158,13.867,26.012,18.496,39.879,10.338
	c13.867-8.157,18.496-26.012,10.338-39.879c-8.101-13.77-25.78-18.447-39.63-10.483c-13.935,7.973-18.768,25.733-10.794,39.668
	C153.901,114.488,153.971,114.606,154.041,114.725L154.041,114.725z M306,601.999c156.02,0,282.499-126.479,282.499-282.499
	C588.499,163.48,462.02,37.001,306,37.001c-16.105,0-29.162,13.056-29.162,29.162S289.895,95.324,306,95.324
	c123.809,0,224.176,100.367,224.176,224.176S429.809,543.676,306,543.676S81.824,443.309,81.824,319.5l0,0
	c0-16.105-13.056-29.162-29.162-29.162S23.501,303.395,23.501,319.5C23.669,475.45,150.05,601.831,306,601.999z"/>
</svg>
