<?xml version="1.0" encoding="utf-8"?>
<!-- Generator: Adobe Illustrator 16.0.0, SVG Export Plug-In . SVG Version: 6.00 Build 0)  -->
<!DOCTYPE svg PUBLIC "-//W3C//DTD SVG 1.1//EN" "http://www.w3.org/Graphics/SVG/1.1/DTD/svg11.dtd">
<svg version="1.1" id="Layer_1" xmlns="http://www.w3.org/2000/svg" xmlns:xlink="http://www.w3.org/1999/xlink" x="0px" y="0px"
	 width="401px" height="430px" viewBox="102.5 108.5 401 430" enable-background="new 102.5 108.5 401 430" xml:space="preserve">
<path d="M493.271,238.716l-66.096-66.096l-6.12,6.12l-22.95-22.95l-40.697,40.698l22.95,22.95l-6.12,6.12l65.79,65.79v48.042h19.277
	v21.114c0,51.714-26.928,103.734-84.762,129.132c24.48-22.031,39.78-53.55,39.78-89.046c0-66.096-53.856-119.952-119.952-119.952
	c-66.096,0-119.952,54.162-119.952,120.564c0,24.479,7.344,47.124,19.89,66.096c-26.01-25.092-42.534-60.588-42.534-99.45v-66.402
	h19.89v-48.042l65.79-65.79l-6.12-6.12l22.95-22.95l-40.698-40.698l-22.95,22.95l-6.12-6.12l-65.79,65.79l0.306,0.306h-0.306
	v100.674h18.36v73.44h0.306c3.978,81.09,70.992,146.269,153.306,146.269c0.918,0,1.836,0,3.06,0c0.306,0,0.612,0,1.224,0
	c0.918,0,1.53,0,2.448,0c104.958-2.448,177.48-67.626,177.48-160.038v-21.114h18.972v-100.98h-0.306L493.271,238.716z
	 M391.374,208.728l-11.934-11.934l18.972-18.972l11.934,11.934L391.374,208.728z M213.588,139.572l18.972,18.972l-11.934,11.934
	l-18.972-18.972L213.588,139.572z M189.414,401.202c0-57.834,47.124-104.958,104.958-104.958S399.33,343.368,399.33,401.202
	c0,15.911-3.672,31.212-10.098,44.676c1.836-7.038,2.754-14.688,2.754-22.338c0-53.856-43.759-97.614-97.614-97.614
	c-53.856,0-97.614,43.758-97.614,97.614c0,7.65,0.918,14.994,2.754,22.338C193.086,432.108,189.414,417.113,189.414,401.202z
	 M297.126,505.854c-1.224,0-2.448,0-3.672,0c-44.982-0.611-81.396-37.331-81.396-82.313c0-45.594,37.026-82.62,82.62-82.62
	s82.62,37.026,82.62,82.62C376.992,468.216,341.496,504.63,297.126,505.854z"/>
</svg>
