<?xml version="1.0" encoding="utf-8"?>
<!-- Generator: Adobe Illustrator 16.0.0, SVG Export Plug-In . SVG Version: 6.00 Build 0)  -->
<!DOCTYPE svg PUBLIC "-//W3C//DTD SVG 1.1//EN" "http://www.w3.org/Graphics/SVG/1.1/DTD/svg11.dtd">
<svg version="1.1" id="Layer_1" xmlns="http://www.w3.org/2000/svg" xmlns:xlink="http://www.w3.org/1999/xlink" x="0px" y="0px"
	 width="612px" height="592px" viewBox="0 29.5 612 592" enable-background="new 0 29.5 612 592" xml:space="preserve">
<g>
	<g>
		<g>
			<g>
				<g>
					<g>
						<g>
							<path d="M378.216,443.736c-4.284,0-8.567-1.225-11.628-4.284l-97.92-77.724c-4.896-3.672-7.344-9.792-7.344-15.3v-156.06
								c0-11.016,8.568-19.584,19.584-19.584c11.016,0,19.584,8.568,19.584,19.584v146.268l90.576,71.604
								c8.567,6.732,9.792,18.972,3.06,27.54C389.232,441.288,383.724,443.736,378.216,443.736z"/>
						</g>
					</g>
				</g>
				<g>
					<g>
						<path d="M283.968,602.244c-149.94,0-271.728-121.788-271.728-271.116C12.24,181.188,134.028,59.4,283.968,59.4
							c23.868,0,47.736,3.06,70.992,9.18c9.792,2.448,15.3,12.852,12.852,22.644c-2.447,9.792-12.852,15.3-22.644,12.852
							c-19.584-5.508-40.392-7.956-61.2-7.956C154.224,96.12,48.96,201.384,48.96,331.128
							c0,129.132,105.264,235.008,235.008,235.008c129.744,0,235.008-105.264,235.008-235.008c0-13.464-1.224-26.928-3.06-39.78
							c-1.836-9.792,4.896-19.584,14.688-20.808c9.793-1.836,19.584,4.896,20.809,14.688c2.448,15.3,3.672,30.6,3.672,45.9
							C555.084,480.456,433.296,602.244,283.968,602.244z"/>
					</g>
				</g>
			</g>
		</g>
	</g>
	<path d="M486.54,36.756c-62.424,0-113.22,50.184-113.22,112.608c0,62.424,50.796,113.22,113.22,113.22s113.22-50.796,113.22-113.22
		C599.76,86.94,548.964,36.756,486.54,36.756z M543.456,121.824l-70.38,58.752c-3.672,3.06-9.18,2.448-12.853-1.224l-30.6-34.272
		c-3.06-3.672-3.06-9.18,0.612-12.852l1.224-0.612c3.672-3.06,9.18-3.06,12.852,0.612l22.645,25.092c0.612,1.224,2.448,1.224,3.06,0
		l60.588-50.796c3.673-3.06,9.792-2.448,12.853,1.224l1.224,1.224C547.74,113.256,547.128,118.764,543.456,121.824z"/>
</g>
</svg>
